<?xml version="1.0" standalone="no"?>
<!DOCTYPE svg PUBLIC "-//W3C//DTD SVG 20010904//EN"
 "http://www.w3.org/TR/2001/REC-SVG-20010904/DTD/svg10.dtd">
<svg version="1.0" xmlns="http://www.w3.org/2000/svg"
 width="401.000000pt" height="401.000000pt" viewBox="0 0 401.000000 401.000000"
 preserveAspectRatio="xMidYMid meet">
<metadata>
Created by potrace 1.11, written by Peter Selinger 2001-2013
</metadata>
<g transform="translate(0.000000,401.000000) scale(0.100000,-0.100000)"
fill="#000000" stroke="none">
<path d="M1675 3565 c-69 -33 -105 -87 -105 -160 0 -64 31 -117 91 -154 l43
-28 1 -274 c0 -271 1 -274 24 -316 26 -46 80 -88 127 -102 16 -4 156 -8 312
-8 257 -1 285 -3 315 -20 39 -23 60 -63 62 -120 2 -42 -9 -55 -30 -34 -6 5
-41 18 -80 28 -85 23 -165 21 -256 -8 l-65 -21 -45 45 c-113 114 -278 154
-432 107 -73 -23 -149 -70 -195 -121 l-30 -34 -2 191 c0 105 -2 200 -5 212
-11 58 -59 116 -119 143 -35 16 -67 19 -222 19 l-182 0 -6 25 c-20 80 -143
128 -233 90 -92 -38 -127 -143 -80 -235 42 -84 136 -119 219 -82 42 18 87 65
101 103 4 13 28 15 169 14 89 -1 172 -3 183 -4 26 -1 72 -41 84 -72 5 -14 8
-137 7 -273 l-1 -249 -60 -17 c-76 -21 -111 -39 -178 -94 l-53 -43 -32 33
c-65 68 -67 68 -376 70 l-279 1 -12 29 c-7 16 -28 44 -48 61 -85 74 -211 47
-269 -57 -39 -70 -6 -178 68 -226 33 -22 104 -29 147 -15 37 13 107 81 107
105 0 8 6 16 12 18 7 2 128 3 268 3 283 -2 304 -6 336 -66 17 -35 16 -47 -15
-131 -43 -116 -30 -255 35 -378 85 -163 266 -261 468 -254 l48 2 -4 -74 c-3
-68 -6 -77 -36 -107 l-32 -32 -273 -2 -273 -2 -22 42 c-81 152 -313 106 -326
-64 -4 -57 9 -96 47 -136 80 -85 231 -63 280 40 l16 34 268 0 c227 1 274 3
308 17 85 36 126 102 129 210 l3 71 136 1 137 0 0 -195 c0 -108 4 -212 10
-231 13 -47 61 -103 107 -126 33 -16 65 -19 233 -20 l195 -1 20 -38 c52 -98
192 -122 272 -45 79 74 72 202 -15 268 -30 23 -45 27 -103 27 -53 0 -74 -5
-96 -21 -26 -20 -67 -71 -75 -96 -3 -7 -66 -10 -192 -10 -274 1 -270 -3 -272
284 -1 109 1 199 5 199 3 1 204 3 446 4 505 3 520 5 634 91 70 53 99 53 147 3
l29 -30 3 -277 3 -278 -35 -12 c-62 -23 -109 -109 -98 -182 12 -81 92 -150
173 -150 53 1 115 34 143 77 59 92 32 204 -62 252 l-37 19 -1 254 c0 139 -4
273 -8 297 -6 34 -20 55 -57 93 -26 26 -55 48 -64 48 -19 0 -19 8 0 54 8 20
21 36 28 36 80 3 149 38 168 87 5 13 9 66 9 116 0 51 3 102 6 114 10 37 64 54
167 54 135 1 137 0 137 -16 0 -25 69 -93 107 -106 41 -13 117 -6 149 16 35 23
72 77 79 115 11 63 -4 109 -50 156 -50 49 -110 65 -175 45 -40 -12 -110 -80
-110 -106 0 -8 -8 -15 -17 -16 -10 0 -67 -2 -128 -3 -122 -4 -147 -11 -199
-56 -41 -36 -49 -65 -50 -191 -2 -96 -12 -119 -55 -119 -25 0 -26 2 -27 64 -3
124 -64 252 -153 324 -57 46 -147 89 -203 97 -27 4 -48 11 -48 15 0 23 65 33
230 36 96 2 185 6 198 9 49 12 101 57 127 108 25 51 25 52 25 318 l0 268 36
17 c20 9 47 34 61 55 106 160 -80 349 -239 244 -106 -70 -100 -229 11 -293
l47 -27 -1 -265 c-1 -236 -3 -268 -18 -292 -34 -50 -68 -58 -259 -58 -189 0
-229 -9 -279 -64 l-25 -26 -37 44 c-36 44 -37 47 -37 129 0 110 -31 177 -103
221 l-48 30 -298 2 c-252 2 -303 5 -330 18 -56 29 -60 49 -61 302 -2 309 -2
314 12 314 22 0 78 51 97 89 33 63 16 157 -35 202 -52 45 -134 60 -189 34z
m136 -106 c52 -59 9 -145 -71 -143 -94 3 -122 133 -36 170 41 17 75 8 107 -27z
m1574 -331 c46 -40 35 -125 -20 -150 -39 -17 -93 -2 -115 34 -38 62 3 138 75
138 21 0 44 -9 60 -22z m-2626 -182 c33 -18 52 -55 45 -93 -18 -96 -154 -100
-177 -5 -8 35 12 81 42 97 33 18 55 18 90 1z m1091 -521 c80 -17 178 -90 216
-160 10 -19 21 -34 24 -33 3 2 36 19 75 38 64 32 77 35 160 35 79 0 97 -4 149
-29 71 -35 129 -92 166 -165 l27 -55 89 -1 c107 -1 172 -26 246 -97 69 -65
103 -143 105 -244 3 -131 -48 -232 -151 -302 -93 -62 -69 -60 -882 -61 -656 0
-747 1 -789 16 -115 39 -200 113 -250 218 -24 50 -29 75 -31 150 -4 98 15 162
70 246 55 83 182 156 285 164 25 2 49 4 54 4 4 1 7 10 7 20 0 29 54 126 90
161 92 90 212 123 340 95z m-1643 -204 c18 -2 51 -40 57 -67 4 -14 0 -39 -10
-59 -22 -47 -80 -65 -124 -38 -55 32 -60 105 -10 147 16 13 39 22 52 21 13 -1
28 -3 35 -4z m3693 -186 c71 -71 -25 -189 -112 -137 -59 35 -59 118 0 155 34
22 79 15 112 -18z m-3154 -947 c50 -24 57 -96 15 -139 -37 -37 -79 -38 -120
-3 -52 43 -40 123 22 149 31 13 44 12 83 -7z m1892 -293 c25 -29 29 -80 8
-107 -56 -74 -166 -39 -166 52 0 31 6 44 32 65 26 22 39 26 67 21 21 -3 45
-16 59 -31z m670 -130 c23 -28 29 -74 12 -106 -11 -20 -57 -46 -77 -43 -7 1
-20 2 -28 3 -29 2 -65 48 -65 83 0 86 102 127 158 63z"/>
<path d="M1660 1803 l0 -209 38 2 c20 1 39 2 42 3 3 0 5 92 5 204 l0 202 -42
3 -43 3 0 -208z"/>
<path d="M2128 1993 c-10 -44 1 -53 63 -53 l59 0 0 -32 c1 -18 2 -96 3 -173
l2 -140 40 0 40 0 3 173 2 172 64 0 63 0 -1 33 -1 32 -167 3 c-152 2 -166 1
-170 -15z"/>
<path d="M1879 1889 c-50 -30 -71 -69 -71 -137 -1 -70 23 -117 72 -143 69 -37
157 -14 194 51 25 43 27 131 3 176 -35 67 -132 93 -198 53z m116 -69 c12 -13
18 -36 18 -70 0 -59 -22 -90 -64 -90 -37 0 -59 33 -59 90 0 25 7 56 16 68 19
28 64 29 89 2z"/>
</g>
</svg>
